<svg width="24" height="25" viewBox="0 0 24 25" fill="none" xmlns="http://www.w3.org/2000/svg">
<g clip-path="url(#clip0_2083_631)">
<path d="M6.09008 21.56C5.82486 21.56 5.57051 21.4546 5.38297 21.2671C5.19544 21.0796 5.09008 20.8252 5.09008 20.56L4.94008 5.9C4.92804 5.60234 4.97496 5.30525 5.07815 5.02579C5.18135 4.74633 5.33877 4.49004 5.54137 4.27164C5.74396 4.05324 5.98774 3.87705 6.25868 3.75321C6.52961 3.62936 6.82236 3.5603 7.12008 3.55L16.7101 3.5C17.0082 3.50521 17.3024 3.56909 17.5758 3.68801C17.8492 3.80692 18.0965 3.97854 18.3036 4.19305C18.5107 4.40756 18.6735 4.66077 18.7827 4.93821C18.8919 5.21565 18.9454 5.51189 18.9401 5.81L19.0801 20.47C19.0818 20.6452 19.0374 20.8178 18.9514 20.9705C18.8654 21.1232 18.7408 21.2506 18.5901 21.34C18.4381 21.4278 18.2656 21.474 18.0901 21.474C17.9145 21.474 17.7421 21.4278 17.5901 21.34L11.8901 18.18L6.60008 21.41C6.44343 21.4975 6.26916 21.5488 6.09008 21.56ZM11.8501 16.01C12.0238 16.0103 12.1951 16.0514 12.3501 16.13L17.0601 18.74L16.9401 5.79C16.9401 5.59 16.8101 5.45 16.7301 5.46L7.13008 5.55C7.05008 5.55 6.94008 5.68 6.94008 5.88L7.06008 18.78L11.3401 16.15C11.4955 16.061 11.671 16.0128 11.8501 16.01Z" fill="#863ED5"/>
</g>
<defs>
<clipPath id="clip0_2083_631">
<rect width="24" height="24" fill="white" transform="translate(0 0.5)"/>
</clipPath>
</defs>
</svg>
